PathFileType	4	(X/Y/Z)	Kaydara	
DataRate	CameraRate	NumFrames	NumMarkers	Units	OrigDataRate	OrigDataStartFrame	OrigNumFrames	
240.00	240.00	4	72	mm	240.00	178	355	
Frame#	Time	Hips			RightUpLeg			RightLeg			RightFoot			RightFoot_End			LeftUpLeg			LeftLeg			LeftFoot			LeftFoot_End			Spine			Spine1			Spine2			Spine3			Neck			Head			Head_End			RightShoulder			RightArm			RightForeArm			RightHand			RightHandThumb1			RightHandThumb2			RightHandThumb3			RightHandThumb3_End			RightInHandIndex			RightHandIndex1			RightHandIndex2			RightHandIndex3			RightHandIndex3_End			RightInHandMiddle			RightHandMiddle1			RightHandMiddle2			RightHandMiddle3			RightHandMiddle3_End			RightInHandRing			RightHandRing1			RightHandRing2			RightHandRing3			RightHandRing3_End			RightInHandPinky			RightHandPinky1			RightHandPinky2			RightHandPinky3			RightHandPinky3_End			LeftShoulder			LeftArm			LeftForeArm			LeftHand			LeftHandThumb1			LeftHandThumb2			LeftHandThumb3			LeftHandThumb3_End			LeftInHandIndex			LeftHandIndex1			LeftHandIndex2			LeftHandIndex3			LeftHandIndex3_End			LeftInHandMiddle			LeftHandMiddle1			LeftHandMiddle2			LeftHandMiddle3			LeftHandMiddle3_End			LeftInHandRing			LeftHandRing1			LeftHandRing2			LeftHandRing3			LeftHandRing3_End			LeftInHandPinky			LeftHandPinky1			LeftHandPinky2			LeftHandPinky3			LeftHandPinky3_End			
		X1	Y1	Z1	X2	Y2	Z2	X3	Y3	Z3	X4	Y4	Z4	X5	Y5	Z5	X6	Y6	Z6	X7	Y7	Z7	X8	Y8	Z8	X9	Y9	Z9	X10	Y10	Z10	X11	Y11	Z11	X12	Y12	Z12	X13	Y13	Z13	X14	Y14	Z14	X15	Y15	Z15	X16	Y16	Z16	X17	Y17	Z17	X18	Y18	Z18	X19	Y19	Z19	X20	Y20	Z20	X21	Y21	Z21	X22	Y22	Z22	X23	Y23	Z23	X24	Y24	Z24	X25	Y25	Z25	X26	Y26	Z26	X27	Y27	Z27	X28	Y28	Z28	X29	Y29	Z29	X30	Y30	Z30	X31	Y31	Z31	X32	Y32	Z32	X33	Y33	Z33	X34	Y34	Z34	X35	Y35	Z35	X36	Y36	Z36	X37	Y37	Z37	X38	Y38	Z38	X39	Y39	Z39	X40	Y40	Z40	X41	Y41	Z41	X42	Y42	Z42	X43	Y43	Z43	X44	Y44	Z44	X45	Y45	Z45	X46	Y46	Z46	X47	Y47	Z47	X48	Y48	Z48	X49	Y49	Z49	X50	Y50	Z50	X51	Y51	Z51	X52	Y52	Z52	X53	Y53	Z53	X54	Y54	Z54	X55	Y55	Z55	X56	Y56	Z56	X57	Y57	Z57	X58	Y58	Z58	X59	Y59	Z59	X60	Y60	Z60	X61	Y61	Z61	X62	Y62	Z62	X63	Y63	Z63	X64	Y64	Z64	X65	Y65	Z65	X66	Y66	Z66	X67	Y67	Z67	X68	Y68	Z68	X69	Y69	Z69	X70	Y70	Z70	X71	Y71	Z71	X72	Y72	Z72	

178	0.738	3921.0129	906.651	56.2195	3970.602775449282	879.6333462064082	-6.6877002664570195	3894.009892084574	474.88962235477373	-78.56040928476388	3927.7639298214317	102.64264163105516	-172.2354697431168	3853.5795651663657	25.016718600911155	-14.133224579757538	3879.1916683654777	904.9493701077264	130.82960875196773	3819.9751324421027	502.7007563738964	230.90895004555307	3760.010362391824	71.72346651602938	294.50639332757424	3632.8404759721902	-9.254246490834525	177.4729850075313	3884.55848266016	1035.2414313751701	5.623312031702796	3836.2404500241378	1105.0230134406766	-41.07430996125374	3780.738200876716	1172.2776295865665	-91.43544667348247	3720.2551862529867	1227.4092214855016	-142.45254768636605	3655.0396381920386	1286.2443802713315	-196.28671591985116	3594.5696688128173	1339.7422959063801	-244.29400254109146	3473.061651628126	1431.9320242431952	-289.71867592336673	3691.1119277293756	1262.5513034789278	-199.59320863734064	3727.3790383531896	1242.6117925368235	-293.066373496752	3731.6946793102247	1015.5739737274688	-254.8007266638086	3749.8958979633417	866.0649271390148	-312.08540304283997	3756.795161162126	868.2433624924229	-326.0976965026958	3750.023577506992	863.9284847610542	-336.8090230576888	3745.0679206929894	858.3811129647258	-343.1717254164508	3740.731353575558	851.5814731799245	-347.5378652359364	3758.0094111100425	859.1212937397473	-323.6525554485794	3763.276527855952	839.9789506160199	-336.39456615443754	3759.24302796015	827.7676791800949	-344.19075706780404	3752.2961925212044	824.3416351131291	-348.3543730442422	3743.5519150920063	824.3157913165597	-351.3397071642852	3756.8075877904225	852.9251476751098	-320.17539876868494	3761.297104660053	830.9024667417239	-330.7230825077152	3756.710473103105	816.8234493207387	-338.7288064128448	3748.240449208311	812.3282003410795	-343.5114117506586	3738.629395712514	812.1240144841765	-346.6609210399032	3755.9017443685916	849.0043515174987	-317.3998731015557	3759.366105823774	825.7713543588528	-324.46160741896904	3755.171074497769	812.7643317979164	-330.91017908172427	3746.8962727545327	808.0376196888465	-335.24231996094557	3737.8097949795692	807.6604993881283	-338.07046054661635	3754.093388000749	845.2897137402781	-313.78261007325426	3756.418302498764	821.5779386285584	-318.05462133923254	3752.7355715974886	810.1161722982242	-322.3618723268328	3746.5434042174074	806.1623959788282	-325.10742326747123	3738.404200483671	805.5370679367612	-327.3742434546517	3662.081865463567	1271.5946704765274	-155.98613088835052	3626.5686386315583	1241.9587172505298	-64.3239224366017	3706.38247273247	1049.7252454393733	-157.2908589816482	3777.3230269099217	891.1047854853508	-236.94314797027084	3765.2947630861013	895.3464548221077	-252.43565981458633	3760.9526895919807	882.3055844973281	-274.2213629692541	3758.4107397906478	870.472940394615	-288.9688712503898	3756.7038556320113	858.2551896976714	-300.90046139109324	3765.0839430942883	886.735167121572	-251.82255788742924	3751.7812822078586	866.1238321354283	-275.2179093684138	3746.9821284235563	847.1809660615332	-294.24638786870025	3747.0853150923763	836.7198557574962	-306.1145935726481	3749.252880418443	828.9486493164662	-315.9636773791787	3767.0694688151516	879.7517300413532	-249.98549322218977	3755.1671533497492	855.8720208568222	-271.8101623355813	3750.2410248792194	834.3412481531294	-292.25916595298565	3750.514622731085	821.3074549438852	-306.4266310137092	3752.958819928201	812.6036502734156	-317.12986215173277	3768.7669388270665	875.3685184028899	-248.0645784367179	3759.442644688979	850.2346077884554	-265.88023267446835	3755.4858355973765	830.6263145592658	-283.34774270086353	3755.92862189894	817.6070441389784	-296.8243751563464	3758.31155560581	809.211386239111	-306.7985380526707	3771.461405547144	870.7198290388095	-245.37777636758346	3764.4158381880275	844.8772080912183	-259.9820424917053	3761.813849112869	827.9714359129022	-273.3366058675381	3762.4108436874817	817.892625738593	-282.8604244104009	3764.679439084901	810.1202014402403	-291.51975118998416
179	0.742	3921.0129	906.651	56.2195	3970.159845510979	879.4541947185539	-6.846786368794414	3893.7678184182255	474.6242128207063	-78.45209074896825	3928.056171550945	102.55125799152782	-172.4288653300385	3853.8789268789787	24.909698869760295	-14.330941773352556	3879.622215614576	905.1235877347439	130.98470555122444	3820.387363914768	502.8847383903292	231.07508174324616	3760.1429265722054	71.91199200277995	294.3987223555399	3633.0522269412468	-9.156709205137705	177.34769467263627	3884.625049207394	1035.2695326301236	5.648204534793574	3836.2999527528136	1105.0872007339915	-40.98741923063615	3780.7848693220894	1172.3834031740296	-91.27450694283353	3720.2791529883225	1227.5584343989212	-142.2052717683513	3655.0372600090377	1286.4367696331967	-195.94624174398	3594.545615849284	1339.9765904574488	-243.86500589799013	3472.9973126742016	1432.1651241234554	-289.16558459790735	3690.9907638791333	1262.6245189697877	-199.2855879811021	3726.7317715583767	1242.3734837339375	-292.37504136886565	3730.9094401835214	1015.9902121612371	-253.5801965863503	3748.749038385028	867.6173487635881	-310.4193023698203	3755.6866221870578	870.0111153337215	-324.3898858664294	3748.9936369076236	865.813625399968	-335.0211393618807	3744.088394785151	860.3426425200528	-341.330678510147	3739.7901594557884	853.6020992677588	-345.6547228980793	3756.8839162756694	860.9016371240248	-321.9543430436353	3762.189231492629	842.0355552382506	-334.6391427288295	3758.2089204770696	829.9521713422081	-342.3735957420687	3751.310312424286	826.5532357633722	-346.4891159403436	3742.616179123606	826.5144845150552	-349.4280895421386	3755.6702750611053	854.6782374044566	-318.4852071683151	3760.1906494361924	832.9102900281309	-328.98143384701433	3755.660407306761	818.9662508456087	-336.9210056076894	3747.24777652155	814.5015127067968	-341.6461688452873	3737.6912049202247	814.2821371113002	-344.74523516389763	3754.754816298402	850.731810316906	-315.7170363759662	3758.2376350964073	827.7068258957728	-322.73970721509914	3754.090021205489	814.8123685135273	-329.131942330299	3745.869659784293	810.1123871977657	-333.4093779628545	3736.833972931962	809.7197054710311	-336.1904218546697	3752.936562540459	846.9743222567756	-312.1081097356017	3755.271340586793	823.4292676107187	-316.3501786814697	3751.6237993516447	812.0487978310947	-320.61454883340383	3745.469996036429	808.110242195953	-323.32127663681075	3737.3750109051934	807.4686679299557	-325.54699806870025	3662.223344852164	1271.880843351058	-155.6788687927537	3627.1831994282184	1242.7730673389926	-64.02342306910508	3706.5828882040496	1050.3461832655926	-156.3013099813919	3776.5993403355938	891.9031603346632	-235.17175804147197	3764.522196840035	896.2570976789837	-250.54847735089916	3760.1259111669206	883.2849721077689	-272.1531930799432	3757.556553753494	871.492067732992	-286.7721725548502	3755.835671491051	859.300487251058	-298.594484758739	3764.3473480036732	887.6305417268787	-249.9195030033108	3751.048736943981	867.1217256072005	-273.08848719434326	3746.2344026329447	848.2310203365503	-291.9398131171153	3746.309530222379	837.7904802805198	-303.70670480879176	3748.441310367596	830.0283013058124	-313.47788170107316	3766.360015639772	880.6205005170918	-248.08261515760123	3754.476336359278	856.8263999622937	-269.6865933071143	3749.537188631895	835.3486784759538	-289.9430214084379	3749.778635596759	822.3378468669373	-303.98860649668	3752.184504634388	813.6430175884148	-314.60676424742866	3768.076809148635	876.2160387054456	-246.16773956678804	3758.7867262526493	851.1408781743567	-263.79125687242356	3754.822161265942	831.5747352501467	-281.09201289948373	3755.2358430047984	818.575441696368	-294.4516643226571	3757.5836422938673	810.1871940876023	-304.34611239018636	3770.7914512822604	871.5386111510046	-243.49336974650785	3763.7905443595323	845.7327351713558	-257.92946285330646	3761.187797400331	828.8540788263938	-271.153041831851	3761.7662007521117	818.7866294230251	-280.5927655962123	3764.0051908602272	811.018921607017	-289.1821866126603
180	0.746	3921.0129	906.651	56.2195	3969.722553551552	879.282218624369	-6.9965775084471185	3893.5364836475837	474.3683479698044	-78.3505108936675	3928.3488468736423	102.46746065810679	-172.62841074063016	3854.1783062195223	24.809801077810825	-14.535211878335728	3880.04595214901	905.2896744725048	131.1290175092727	3820.8135133365804	503.0566120893858	231.22666135600574	3760.285670315568	72.09168702781386	294.2781973968871	3633.2728778898745	-9.065502613491713	177.20931935304094	3884.6967454637615	1035.3017117485927	5.679417645358654	3836.3675754880333	1105.1565844509325	-40.89541767108578	3780.8417749418395	1172.4941007219518	-91.11085480227773	3720.313673523126	1227.7090449587279	-141.95883327144819	3655.0457453495346	1286.6269903632717	-195.61013989482382	3594.533179654281	1340.2058883853388	-243.44363985134456	3472.9470836937176	1432.3961209596966	-288.61991155735956	3690.879576798852	1262.6968043914421	-198.9773889929893	3726.081611983051	1242.1408052437778	-291.6667553135325	3730.141973850443	1016.4144645874987	-252.33709905721437	3747.496401869886	869.1026100026685	-308.7364915810991	3754.4688182984346	871.7050703792131	-322.6753300659136	3747.8491053096873	867.6135915648867	-333.2286353520253	3742.9891679852008	862.2104441841217	-339.48555127774006	3738.7238061962457	855.5213273686095	-343.76714638674446	3755.6434365101354	862.6054509323724	-320.2475788623226	3760.9693210239707	843.9983743305412	-332.8813424311806	3757.0319522591317	832.0301321756607	-340.55489228688884	3750.1788199889647	828.6518291099159	-344.62122160034255	3741.5349942760135	828.5957869459967	-347.51183954719323	3754.414877035448	856.3536477894454	-316.7835281287412	3758.9472364408643	834.8229813292436	-327.23273365278305	3754.4618532996747	820.9999155480001	-335.1066524460371	3746.1031282556582	816.5578288004081	-339.7728547986608	3736.601135845009	816.3184446684583	-342.81919903096156	3753.4880292335074	852.3812177644216	-314.02051085518775	3756.970755061217	829.548281843838	-321.00627113602707	3752.8601815991183	816.7541116640832	-327.34217667975105	3744.6907230343695	812.0732421892741	-331.56321472726563	3735.705836348015	811.6604502347117	-334.2949112551636	3751.6586059881056	848.5809510908282	-310.41696628562386	3753.9853320518782	825.1880129293288	-314.6293497138523	3750.364241971123	813.8789663967743	-318.8501670438034	3744.246015022396	809.9500540341685	-321.51650953353055	3736.1951372043727	809.2881924415051	-323.698949845951	3662.3763070935447	1272.1659340995566	-155.37879748107105	3627.822903240091	1243.6006932851608	-63.72166943980897	3706.830663915835	1050.98683112668	-155.282855873219	3775.8553904500345	892.6763360264596	-233.37652602480497	3763.7300616727607	897.142533107633	-248.63764613806686	3759.2844699314664	884.2410804594966	-270.0557287597074	3756.6912645533835	872.4888325661327	-284.54189647521804	3754.9594740529897	860.3238219504105	-296.25105972105473	3763.5913927429287	888.498828886193	-247.99203377596245	3750.3003350241424	868.0895886996607	-270.9304117317592	3745.4752222917973	849.2508750176759	-289.5990929742604	3745.5257172717593	838.832406683397	-301.26047587572384	3747.625013486403	831.0815817991356	-310.94974749540614	3765.6315627891036	881.461216285028	-246.1543940452263	3753.7701312878635	857.7493302100098	-267.53304510755504	3748.822806490925	836.324359521099	-287.5907927344704	3749.036255022118	823.3382455640273	-301.5093832837789	3751.407417139109	814.6549103788831	-312.0380665785589	3767.3678267507657	877.0348735652173	-244.24503241932692	3758.115265776634	852.0148081281028	-261.67186813741864	3754.147199381919	832.4904409795514	-278.80044172105517	3754.535799995675	819.5127583013282	-292.0381216648044	3756.8518782951296	811.1342608288462	-301.84868979586594	3770.102856383296	872.3282430732208	-241.58243355890545	3763.149716934231	846.5553967995186	-255.84585240675122	3760.549657664167	829.703396702822	-268.9339522367923	3761.1124232597836	819.6484225991564	-278.2858696741338	3763.3248425747347	811.8874595899779	-286.8016541190206
181	0.75	3921.0129	906.651	56.2195	3969.292571614629	879.1181444668432	-7.135971755410792	3893.314518337044	474.12383382874896	-78.2565932739783	3928.6427354149823	102.39250074457509	-172.83406166876824	3854.4785926365735	24.718141784793552	-14.7460084293531	3880.4611624555473	905.4469385034539	131.26155662846375	3821.253901841785	503.2154704203066	231.36306488803905	3760.438964020518	72.26158860390254	294.14423103237243	3633.5027755108276	-8.981376304792821	177.05715449425384	3884.773724590593	1035.337791133261	5.7164015737409475	3836.443774334891	1105.2310164055648	-40.79913216815472	3780.909722788722	1172.6096414485285	-90.94559163870635	3720.3599679398035	1227.8611242502789	-141.71456867396182	3655.0667580917425	1286.8152806863159	-195.28000244130777	3594.5344210834364	1340.43056837307	-243.03174936988847	3472.913096332166	1432.6250730309498	-288.08423729790616	3690.780215428128	1262.769053278155	-198.66945945001092	3725.43284330859	1241.9162812349664	-290.94412086100147	3729.3991791398184	1016.8496464682901	-251.07353135663377	3746.1410927972724	870.5172505716372	-307.0366816191277	3753.1443545767765	873.3209311670022	-320.95448207781374	3746.5920380816538	869.3229911412465	-331.43183467611965	3741.771855944088	863.9783217650998	-337.63641744134475	3737.5334942045515	857.3322558424859	-341.87486430212897	3754.2903027428715	864.228211384046	-318.5322563186909	3759.6178399227692	845.8611213135284	-331.120800497539	3755.712401115499	833.9940666680302	-338.7337898602977	3748.901734784576	830.6293491236848	-342.7495520051656	3740.3083132529628	830.5512815506956	-345.5896031132309	3753.0436208956257	857.9468056029427	-315.06992116229725	3757.5677809651797	836.6342212922242	-325.4759574495509	3753.1148815369875	822.916804647832	-333.2841291174883	3744.8062588128073	818.4888205574	-337.8894855059313	3735.3588675453534	818.2242248135884	-340.880578985641	3752.1035679748984	853.948009874865	-312.30955999282116	3755.566432290785	831.2895990161073	-319.2597862086469	3751.4817784162046	818.5822900010237	-325.53879527012066	3743.359376424591	813.912249587392	-329.70135994178247	3734.4252264267348	813.4744377835522	-332.3812095256153	3750.2617069495504	850.1051043286071	-308.7081016961084	3752.5613435363175	826.8482872630674	-312.8901381791208	3748.95736414601	815.5998812113461	-317.06618600574615	3742.871697554221	811.6745552845891	-319.6902601346858	3734.8647495750465	810.9880483773607	-321.82699276290634	3662.541896998793	1272.4493750233642	-155.08809710388292	3628.4890727819156	1244.4407434737757	-63.42094085346555	3707.128444566195	1051.6480568191657	-154.24032608382998	3775.088589128227	893.4251709173822	-231.56676192970886	3762.9178194318447	898.00445915001	-246.71298481443898	3758.4288716875412	885.1759133568975	-267.9390057147389	3755.8158961110553	873.4654618656459	-282.2882397555487	3754.076540472658	861.3276155872895	-293.8805257130858	3762.8150439938618	889.3419141722418	-246.0500936139605	3749.5363606194533	869.030595421552	-268.75444595254356	3744.7054382409588	850.2442067549886	-287.23533252423675	3744.7349550967333	839.8492995274054	-298.7870276366153	3746.805173526002	832.1119264053252	-308.3902758622352	3764.88244630463	882.2757272085387	-244.21076076164496	3753.047818204978	858.6438989747738	-265.3602412829038	3748.0976889506683	837.2719177545443	-285.2135721879977	3748.287524403566	824.312258412672	-299.00007046762335	3750.627695098931	815.6426833244245	-309.4347461226507	3766.6378509647684	877.8268190703253	-242.30636065159237	3757.4265619700864	852.8592687516989	-259.53266432824756	3753.45961960189	833.3767611418423	-276.4839424172277	3753.8273386494484	820.4222987781936	-289.5946734979224	3756.115175022772	812.0556507661115	-299.3170708650941	3769.392873250977	873.0903875199554	-239.65479628930697	3762.4906458002106	847.3477743880818	-253.7416388234813	3759.8968723329854	830.5223151343743	-266.69000494110105	3760.447012203739	820.4809019094952	-275.95040804773	3762.635913131777	812.7284926264288	-284.3887103079147
